<?xml version="1.0" encoding="utf-8"?>
<!-- Generator: Adobe Illustrator 18.1.1, SVG Export Plug-In . SVG Version: 6.00 Build 0)  -->
<svg version="1.1" id="Ebene_1" xmlns="http://www.w3.org/2000/svg" xmlns:xlink="http://www.w3.org/1999/xlink" x="0px" y="0px"
	 width="161.7px" height="158.4px" viewBox="0 0 161.7 158.4" enable-background="new 0 0 161.7 158.4" xml:space="preserve">
<g>
	<g>
		<g>
			<g>
				<path fill="#DC0267" d="M42.1,111.8c-18.6,0-33.8-15.2-33.8-33.9S23.5,44,42.1,44s33.8,15.2,33.8,33.9S60.7,111.8,42.1,111.8z
					 M42.1,45.6C24.4,45.6,10,60.1,10,77.9c0,17.8,14.4,32.2,32.1,32.2s32.1-14.5,32.1-32.2C74.2,60.1,59.8,45.6,42.1,45.6z"/>
			</g>
		</g>
		<g>
			<g>
				<polygon fill="#FAB313" points="84.3,70.3 98.2,56.3 111.4,56.3 102.1,65.7 120.7,65.7 120.7,75 102.1,75 111.4,84.4 98.2,84.4 
					84.3,70.3 				"/>
			</g>
		</g>
		<g>
			<g>
				<polygon fill="#FAB313" points="42.9,70.3 34.7,62.1 26.9,62.1 32.4,67.6 21.4,67.6 21.4,73.1 32.4,73.1 26.9,78.6 34.7,78.6 
					42.9,70.3 				"/>
			</g>
		</g>
		<g>
			<g>
				<path fill="#DC0267" d="M100.7,112.5c-28.2,0-51.1-23-51.1-51.3c0-28.3,22.9-51.3,51.1-51.3c28.2,0,51.1,23,51.1,51.3
					C151.8,89.5,128.9,112.5,100.7,112.5z M100.7,19.9c-22.7,0-41.1,18.5-41.1,41.3s18.5,41.3,41.1,41.3c22.7,0,41.1-18.5,41.1-41.3
					S123.4,19.9,100.7,19.9z"/>
			</g>
		</g>
		<g>
			<g>
				<path fill="#DC0267" d="M100.7,97.5c-19.9,0-36.2-16.3-36.2-36.3c0-20,16.2-36.3,36.2-36.3c19.9,0,36.2,16.3,36.2,36.3
					C136.9,81.2,120.6,97.5,100.7,97.5z M100.7,26.6c-19,0-34.5,15.5-34.5,34.7s15.5,34.7,34.5,34.7s34.5-15.5,34.5-34.7
					S119.7,26.6,100.7,26.6z"/>
			</g>
		</g>
	</g>
	<g>
		<path d="M16.4,137.1h-5v6.5h3.4v3.7h-3.4v10.8H7.7v-24.8h8.7V137.1z"/>
		<path d="M24.7,143.2c-0.3-0.1-0.6-0.1-0.9-0.1c-0.5,0-1.2,0.1-1.7,0.6c-0.6,0.5-0.7,1.1-0.7,1.7v12.8h-3.4v-18.4h3.4v2.1
			c0-0.2,0.3-0.8,0.8-1.3c0.5-0.5,1.3-1,2.6-1V143.2z"/>
		<path d="M34.5,151.5v2.1c-0.1,1.8-0.6,3-1.9,4c-0.6,0.5-1.4,0.7-2.6,0.7c-2.2,0-3.3-1.2-3.8-2.4c-0.3-0.7-0.5-1.5-0.5-2.4v-9.3
			c0.1-1.8,0.7-3.1,1.9-4.1c0.6-0.5,1.4-0.7,2.5-0.7c2.2,0,3.3,1.2,3.8,2.4c0.3,0.7,0.5,1.5,0.5,2.4v5.4h-5.6v4
			c0,0.7,0.2,1.2,0.5,1.6c0.2,0.2,0.4,0.3,0.7,0.3c0.6,0,0.9-0.4,1.1-0.9c0.1-0.3,0.1-0.6,0.1-0.9v-2H34.5z M28.9,146.9h2.5v-2.6
			c0-0.7-0.1-1.2-0.5-1.6c-0.2-0.2-0.4-0.3-0.7-0.3c-0.6,0-0.9,0.4-1.1,0.9c-0.1,0.3-0.1,0.6-0.2,0.9V146.9z"/>
		<path d="M36.8,133.4h3.4v3.4h-3.4V133.4z M36.8,158.1v-18.4h3.4v18.4H36.8z"/>
		<path d="M43.6,158.1v-15.4h-1.7v-3.1h1.7v-0.5c0-0.9,0-2.5,0.5-3.7c0.5-1.2,1.4-2.3,3.4-2.3c0.5,0,0.9,0,1.2,0.1l0.4,0.1v2.9
			c-0.1,0-0.2,0-0.3-0.1c-0.2,0-0.5-0.1-0.7-0.1c-0.6,0-0.8,0.5-1,1.1c-0.1,0.3-0.1,0.7-0.1,1c0,0.3,0,0.6,0,0.8v0.5h1.7v3.1H47
			v15.4H43.6z"/>
		<path d="M56,139.7h3.4v18.4H56v-1.6c-0.1,0-0.2,0.2-0.4,0.3c-0.4,0.4-0.9,0.9-1.5,1.2c-0.3,0.2-0.6,0.3-0.9,0.3
			c-0.9,0-1.6-0.5-2-1.2c-0.4-0.7-0.6-1.6-0.6-2.4v-15.1H54v14.6c0,0.7,0.4,0.8,0.8,0.8c0.4,0,0.6-0.2,0.8-0.4
			c0.1-0.1,0.2-0.3,0.3-0.4V139.7z"/>
		<path d="M65.5,158.1h-3.4v-18.4h3.4v1.6c0.1,0,0.2-0.2,0.4-0.4c0.4-0.4,0.9-0.9,1.5-1.2c0.3-0.2,0.6-0.2,0.9-0.2
			c0.9,0,1.6,0.5,2,1.2c0.4,0.7,0.6,1.6,0.6,2.4v15.1h-3.4v-14.6c0-0.7-0.4-0.8-0.8-0.8c-0.4,0-0.6,0.2-0.8,0.4
			c-0.1,0.1-0.2,0.3-0.3,0.4V158.1z"/>
		<path d="M76.8,133.4v11.8H77l0.2-0.6l1.7-4.8h3.1l-2.5,6l3.1,12.4h-3.3l-1.7-7.4l-0.1-0.3h-0.2l-0.1,0.3l-0.4,1.1v6.4h-3.4v-24.8
			H76.8z"/>
		<path d="M88.1,158.1l3.7-24.8h4.4l3.7,24.8h-3.5l-0.7-5.1h-3.5l-0.7,5.1H88.1z M94.3,141.4l-0.1-0.6H94l-0.1,0.6l-1,7.8h2.5
			L94.3,141.4z"/>
		<path d="M106.9,144.1c0-0.3,0-0.8-0.1-1.1c-0.1-0.3-0.4-0.6-0.8-0.6c-0.6,0-0.8,0.4-0.9,1c0,0.3-0.1,0.6-0.1,0.9s0,0.6,0,0.9h-3.4
			v-0.8c0-1.3,0.5-2.6,1.3-3.5c0.8-0.9,2-1.4,3.3-1.4c1.1,0,2.1,0.4,2.9,1.2c0.8,0.7,1.2,1.8,1.2,3v11.3c0,1.7,0.1,2.4,0.2,3.2h-3.3
			c-0.3-0.4-0.3-1.2-0.3-1.5h-0.2c-0.2,0.3-0.5,0.7-0.9,1.1c-0.5,0.4-1.1,0.6-1.8,0.6c-0.4,0-1.1-0.2-1.7-0.8c-0.6-0.6-1-1.8-1-3.7
			c0-2.1,0.6-3.5,1.4-4.5c0.8-1,1.8-1.7,2.7-2.1c0.8-0.4,1.5-0.7,1.6-1.1V144.1z M106.9,149.2c-1.7,0.7-2.4,2.4-2.4,4.1
			c0,0.2,0,0.6,0.2,1c0.1,0.4,0.4,0.7,0.8,0.7c0.8,0,1.4-0.5,1.4-1.1V149.2z"/>
		<path d="M115.8,153.9c0,0.7,0,1.5,0.9,1.5c0.8,0,1-0.4,1-1.5v-2.6h3.4v1.8c0,2.1-0.4,3.4-1.1,4.2c-0.7,0.8-1.8,1.1-3.3,1.1
			c-1.2,0-2.3-0.3-3.1-1.2c-0.8-0.8-1.2-2.2-1.2-4.3v-8.1c0-2.1,0.5-3.4,1.2-4.3c0.8-0.8,1.9-1.2,3.1-1.2c1.4,0,2.5,0.3,3.3,1.1
			c0.7,0.8,1.1,2.1,1.1,4.2v1.4h-3.4v-2.2c0-1.1-0.2-1.5-1-1.5c-0.9,0-0.9,0.8-0.9,1.5V153.9z"/>
		<path d="M126.7,158.1h-3.4v-24.8h3.4v7.9c0.1,0,0.2-0.2,0.4-0.4c0.4-0.4,0.9-0.9,1.5-1.2c0.3-0.2,0.6-0.2,0.9-0.2
			c0.9,0,1.6,0.5,2,1.2c0.4,0.7,0.6,1.6,0.6,2.4v15.1h-3.4v-14.6c0-0.7-0.4-0.8-0.8-0.8c-0.4,0-0.6,0.2-0.8,0.4
			c-0.1,0.1-0.2,0.3-0.3,0.4V158.1z"/>
		<path d="M143.1,151.5v2.1c-0.1,1.8-0.6,3-1.9,4c-0.6,0.5-1.4,0.7-2.6,0.7c-2.2,0-3.3-1.2-3.8-2.4c-0.3-0.7-0.5-1.5-0.5-2.4v-9.3
			c0.1-1.8,0.7-3.1,1.9-4.1c0.6-0.5,1.4-0.7,2.5-0.7c2.2,0,3.3,1.2,3.8,2.4c0.3,0.7,0.5,1.5,0.5,2.4v5.4h-5.6v4
			c0,0.7,0.2,1.2,0.5,1.6c0.2,0.2,0.4,0.3,0.7,0.3c0.6,0,0.9-0.4,1.1-0.9c0.1-0.3,0.1-0.6,0.1-0.9v-2H143.1z M137.5,146.9h2.5v-2.6
			c0-0.7-0.1-1.2-0.5-1.6c-0.2-0.2-0.4-0.3-0.7-0.3c-0.6,0-0.9,0.4-1.1,0.9c-0.1,0.3-0.1,0.6-0.2,0.9V146.9z"/>
		<path d="M148.8,158.1h-3.4v-18.4h3.4v1.6c0.1,0,0.2-0.2,0.4-0.4c0.4-0.4,0.9-0.9,1.5-1.2c0.3-0.2,0.6-0.2,0.9-0.2
			c0.9,0,1.6,0.5,2,1.2c0.4,0.7,0.6,1.6,0.6,2.4v15.1h-3.4v-14.6c0-0.7-0.4-0.8-0.8-0.8c-0.4,0-0.6,0.2-0.8,0.4
			c-0.1,0.1-0.2,0.3-0.3,0.4V158.1z"/>
	</g>
</g>
</svg>
