<?xml version="1.0" encoding="utf-8"?>
<!-- Generator: Adobe Illustrator 17.1.0, SVG Export Plug-In . SVG Version: 6.00 Build 0)  -->
<!DOCTYPE svg PUBLIC "-//W3C//DTD SVG 1.1//EN" "http://www.w3.org/Graphics/SVG/1.1/DTD/svg11.dtd">
<svg version="1.1" id="Ebene_1" xmlns="http://www.w3.org/2000/svg" xmlns:xlink="http://www.w3.org/1999/xlink" x="0px" y="0px"
	 viewBox="0 0 434.9 329.4" enable-background="new 0 0 434.9 329.4" xml:space="preserve">
<g>
	<path fill="#FFFFFF" d="M0,209.5C0,147,50.7,96.3,113.2,96.3c62.5,0,113.2,50.7,113.2,113.2s-50.7,113.2-113.2,113.2
		C50.7,322.7,0,272,0,209.5L0,209.5z"/>
	<path fill="#FFFFFF" d="M106.9,164.7c0-91,73.4-164.7,164-164.7c90.6,0,164,73.7,164,164.7s-73.4,164.7-164,164.7
		C180.3,329.4,106.9,255.6,106.9,164.7L106.9,164.7z"/>
	<path fill="none" stroke="#DC0267" stroke-width="4.4452" stroke-miterlimit="3.8637" d="M24.6,209.5c0-49.1,39.7-89,88.6-89
		s88.6,39.8,88.6,89c0,49.1-39.7,89-88.6,89S24.6,258.6,24.6,209.5L24.6,209.5z"/>
	<polygon fill="#FAB313" points="226.8,189.3 264.3,151.6 299.6,151.6 274.6,176.7 324.7,176.7 324.7,201.8 274.6,201.8 299.6,227 
		264.3,227 226.8,189.3 	"/>
	<polygon fill="#FAB313" points="115.5,189.3 93.3,167 72.5,167 87.2,181.9 57.7,181.9 57.7,196.7 87.2,196.7 72.5,211.5 
		93.3,211.5 115.5,189.3 	"/>
	<path fill="none" stroke="#DC0267" stroke-width="26.7006" stroke-miterlimit="3.8637" d="M146.9,164.7
		c0-68.8,55.5-124.6,124.1-124.6c68.5,0,124.1,55.8,124.1,124.6c0,68.8-55.5,124.6-124.1,124.6C202.4,289.3,146.9,233.5,146.9,164.7
		L146.9,164.7z"/>
	<path fill="none" stroke="#DC0267" stroke-width="4.4452" stroke-miterlimit="3.8637" d="M175.8,164.7c0-52.7,42.6-95.5,95.1-95.5
		c52.5,0,95.1,42.7,95.1,95.5s-42.6,95.5-95.1,95.5C218.4,260.2,175.8,217.4,175.8,164.7L175.8,164.7z"/>
</g>
</svg>
